<svg xmlns="http://www.w3.org/2000/svg" viewBox="0 0 66 72.5" x="0px" y="0px"><path fill="#000000" fill-rule="evenodd" d="M690.868243,61.5038611 L722.868243,117.503861 C723.24919,118.170518 722.767823,119 722,119 L658,119 C657.232177,119 656.75081,118.170518 657.131757,117.503861 L689.131757,61.5038611 C689.515651,60.8320463 690.484349,60.8320463 690.868243,61.5038611 Z M677.437465,86 L672.294608,95 L707.705392,95 L702.562535,86 L677.437465,86 Z M664.866037,108 L659.72318,117 L720.27682,117 L715.133963,108 L664.866037,108 Z M708.848249,97 L671.151751,97 L666.008894,106 L713.991106,106 L708.848249,97 Z M683.72318,75 L678.580323,84 L701.419677,84 L696.27682,75 L683.72318,75 Z M690,64.0155644 L684.866037,73 L695.133963,73 L690,64.0155644 Z" transform="translate(-657 -61)"/><text x="0" y="73" fill="#000000" font-size="5px" font-weight="bold" font-family="'Helvetica Neue', Helvetica, Arial-Unicode, Arial, Sans-serif">Created by Andrejs Kirma</text><text x="0" y="78" fill="#000000" font-size="5px" font-weight="bold" font-family="'Helvetica Neue', Helvetica, Arial-Unicode, Arial, Sans-serif">from the Noun Project</text></svg>